<svg width="34" height="37" viewBox="0 0 34 37" fill="none" xmlns="http://www.w3.org/2000/svg">
<path fill-rule="evenodd" clip-rule="evenodd" d="M32.4168 9.76225H20.6682L22.0158 9.56618C23.1891 9.41368 24.294 8.92817 25.1934 8.16568C26.1488 7.35339 26.7059 6.17386 26.7308 4.92586C26.8024 2.28048 24.7203 0.0832537 22.0812 0.0054483C20.8332 -0.0381227 19.6256 0.453607 18.7573 1.35615C17.9482 2.22135 17.4004 3.29195 17.1825 4.45592L16.7842 6.3886L16.3858 4.45592C16.1711 3.29195 15.6233 2.22135 14.811 1.35615C13.9458 0.453607 12.7414 -0.041235 11.4934 -0.00388835C8.85114 0.0801415 6.76907 2.27737 6.83443 4.92275C6.86555 6.17075 7.42264 7.35028 8.37809 8.16257C9.28063 8.92506 10.3824 9.41057 11.5557 9.56307L12.9032 9.75914H1.15463C0.516628 9.76536 0 10.2789 0 10.92V16.2761C0 16.9172 0.516628 17.4339 1.15463 17.4339H1.93891V35.8395C1.93891 36.4775 2.45865 36.9941 3.09354 36.9941H30.4717C31.1128 36.9941 31.6326 36.4775 31.6326 35.8395V17.4339H32.4168C33.0549 17.4339 33.5715 16.9172 33.5715 16.2761V10.92C33.5715 10.2789 33.0549 9.76536 32.4168 9.75914V9.76225ZM19.4482 4.91964C19.6972 3.7121 20.5033 2.31471 21.9505 2.31471H22.0158C23.3821 2.35517 24.4558 3.49424 24.4216 4.86051C24.3811 6.34815 22.9184 7.09197 21.6766 7.27559L18.8756 7.69262L19.4482 4.91964ZM11.8918 7.27559C10.6531 7.09197 9.18726 6.35126 9.1468 4.86051C9.11568 3.49424 10.1894 2.35828 11.5557 2.31471H11.6179C13.0682 2.31471 13.8743 3.7121 14.1232 4.92586L14.6897 7.69574L11.8918 7.27559Z" fill="#8BB5E0"/>
<path d="M19.2865 31.087C19.5292 31.3111 19.744 31.557 19.9276 31.8246C20.189 32.1887 20.4878 32.5311 20.8146 32.8454C22.0252 34.0218 23.4133 34.5696 24.2536 34.5914C24.5399 34.6225 24.8076 34.5353 24.9943 34.3548L25.5576 33.6453L25.5856 33.5923C25.6852 33.2936 25.6976 32.9637 25.6261 32.6369L25.9435 32.6182C26.2236 32.6027 26.4695 32.4813 26.6313 32.279L27.2724 31.4729C27.4343 31.2706 27.4965 31.003 27.4467 30.7291L27.3938 30.4148C27.7299 30.4117 28.0443 30.3214 28.315 30.1596L28.3648 30.116L28.9312 29.4064C29.0651 29.1854 29.0869 28.9053 28.9935 28.6346C28.785 27.8223 27.9353 26.593 26.5193 25.678C26.1396 25.429 25.7381 25.2174 25.3242 25.0462C25.0223 24.9248 24.7329 24.7692 24.459 24.5825L20.5158 21.24L15.9315 17.5955C15.5612 17.2625 15.1379 16.9949 14.6866 16.8019C13.6658 16.3662 12.3431 16.1919 11.2881 16.055C10.8959 16.0114 10.5038 15.9492 10.1117 15.8683C9.57637 15.6878 9.05974 15.4326 8.58357 15.1089C8.6427 14.972 8.5898 14.8008 8.45597 14.695L7.79307 14.169C7.63435 14.0445 7.41649 14.0507 7.30756 14.1877L5.28773 16.7272C5.17881 16.8642 5.21926 17.0789 5.37799 17.2065L6.04089 17.7325C6.17472 17.8383 6.35211 17.8508 6.47038 17.7667C6.89364 18.1557 7.26088 18.6008 7.55654 19.0832C7.68103 19.3322 7.83041 19.7274 8.0047 20.188C8.37816 21.187 8.84811 22.4319 9.49234 23.322C9.78489 23.7204 10.1428 24.0721 10.5505 24.3584L15.1379 28.0028L19.2865 31.0932V31.087ZM8.40306 20.0915C8.26612 19.7025 8.11051 19.3197 7.93312 18.94C7.6997 18.4763 7.17062 17.9037 6.71935 17.4617L8.34704 15.4139C8.88234 15.7531 9.56392 16.139 10.0619 16.2604C10.4696 16.3475 10.8773 16.4129 11.2881 16.4565C11.3877 16.4689 11.4966 16.4845 11.6024 16.5L8.5151 20.3841C8.48087 20.2845 8.44041 20.1849 8.40617 20.0884L8.40306 20.0915ZM19.5572 20.9723L14.6648 27.1283L10.5972 23.8947L15.4896 17.7387L19.5572 20.9723Z" fill="#2B2B2B"/>
<path d="M14.4841 20.8509C15.4645 21.629 15.6263 23.0575 14.8483 24.0347C14.6491 24.2837 14.4094 24.4798 14.148 24.6229C13.9551 24.542 13.7714 24.4331 13.6003 24.2962C12.5732 23.4777 12.4021 21.9838 13.2175 20.9536C13.3731 20.7576 13.5536 20.5926 13.7497 20.4619C14.0111 20.5428 14.2601 20.6735 14.4841 20.8509Z" fill="#2B2B2B"/>
<path d="M16.557 20.5738C17.5841 21.3923 17.7552 22.8861 16.9398 23.9163C16.4481 24.5325 15.7136 24.8437 14.9823 24.8126C15.3931 24.6601 15.7697 24.3956 16.0591 24.0314C16.9149 22.9546 16.7344 21.3861 15.6576 20.5333C15.3837 20.3155 15.0787 20.1661 14.7644 20.082C15.3806 19.998 16.0311 20.1598 16.557 20.5769V20.5738Z" fill="#2B2B2B"/>
</svg>
